<?xml version="1.0" encoding="UTF-8" standalone="no"?><!-- Generator: Gravit.io --><svg xmlns="http://www.w3.org/2000/svg" xmlns:xlink="http://www.w3.org/1999/xlink" style="isolation:isolate" viewBox="0 0 8 15" width="8pt" height="15pt"><defs><clipPath id="_clipPath_VhZpSMFSoHwd9YRehXSckmht8sHSlee6"><rect width="8" height="15"/></clipPath></defs><g clip-path="url(#_clipPath_VhZpSMFSoHwd9YRehXSckmht8sHSlee6)"><path d=" M 0.397 7.241 L 6.997 0.641 C 7.091 0.515 7.25 0.456 7.403 0.49 C 7.555 0.523 7.675 0.642 7.708 0.795 C 7.742 0.948 7.683 1.107 7.557 1.201 L 1.239 7.52 L 7.561 13.842 C 7.672 13.956 7.704 14.125 7.644 14.272 C 7.583 14.419 7.441 14.516 7.282 14.52 C 7.177 14.52 7.077 14.478 7.003 14.403 L 0.403 7.803 C 0.327 7.729 0.284 7.628 0.283 7.523 C 0.281 7.417 0.323 7.315 0.397 7.241 Z " fill="rgb(107,0,179)"/></g></svg>