<?xml version="1.0" encoding="UTF-8" standalone="no"?><!-- Generator: Gravit.io --><svg xmlns="http://www.w3.org/2000/svg" xmlns:xlink="http://www.w3.org/1999/xlink" style="isolation:isolate" viewBox="0 0 200 200" width="200pt" height="200pt"><defs><clipPath id="_clipPath_ZAWD9m8rNFNDW3mvhgPe9JRqDQnlExoF"><rect width="200" height="200"/></clipPath></defs><g clip-path="url(#_clipPath_ZAWD9m8rNFNDW3mvhgPe9JRqDQnlExoF)"><g><g><circle vector-effect="non-scaling-stroke" cx="99.99999999999999" cy="99.99999999999999" r="99" fill="none"/></g><g><g><path d=" M 155.688 90.719 C 155.378 73.703 141.456 58.544 124.441 58.544 C 114.541 58.544 105.878 63.803 100 71.228 C 94.122 63.494 85.459 58.544 75.559 58.544 C 58.544 58.544 44.622 73.703 44.313 90.719 L 44.313 90.719 C 44.313 90.719 44.313 91.028 44.313 91.028 C 44.313 91.028 44.313 91.028 44.313 91.338 C 44.313 91.956 44.313 92.266 44.313 92.575 C 45.859 136.197 99.381 153.831 99.381 153.831 C 99.381 153.831 153.831 136.197 155.688 92.575 C 155.688 91.956 155.688 91.647 155.688 91.338 C 155.688 91.338 155.688 91.028 155.688 90.719 C 155.688 91.028 155.688 90.719 155.688 90.719 L 155.688 90.719 Z " fill="rgb(107,0,179)"/></g></g></g></g></svg>