<?xml version="1.0" encoding="UTF-8" standalone="no"?><!-- Generator: Gravit.io --><svg xmlns="http://www.w3.org/2000/svg" xmlns:xlink="http://www.w3.org/1999/xlink" style="isolation:isolate" viewBox="0 0 40 40" width="40pt" height="40pt"><defs><clipPath id="_clipPath_cUlF4QmUsPEg47AtFabLv4LCTIYAO7im"><rect width="40" height="40"/></clipPath></defs><g clip-path="url(#_clipPath_cUlF4QmUsPEg47AtFabLv4LCTIYAO7im)"><g><path d=" M 37.035 29.98 L 34.847 23.413 C 36.019 21.352 36.637 19.014 36.637 16.633 C 36.637 9.058 30.474 2.896 22.899 2.896 C 18.2 2.896 13.878 5.303 11.371 9.171 C 13.133 8.435 15.064 8.027 17.089 8.027 C 25.293 8.027 31.967 14.701 31.967 22.905 C 31.967 25.183 31.451 27.342 30.532 29.275 L 36.383 30.815 C 36.432 30.827 36.48 30.833 36.529 30.833 C 36.531 30.833 36.533 30.833 36.535 30.833 C 36.844 30.827 37.11 30.58 37.11 30.263 C 37.11 30.16 37.083 30.064 37.035 29.98 Z " fill="rgb(245,231,255)"/><path d=" M 17.089 9.167 C 9.515 9.167 3.352 15.33 3.352 22.905 C 3.352 25.286 3.97 27.624 5.142 29.686 L 2.919 36.354 C 2.853 36.553 2.901 36.771 3.044 36.924 C 3.153 37.041 3.305 37.104 3.46 37.104 C 3.509 37.104 3.557 37.098 3.605 37.086 L 10.896 35.167 C 12.805 36.133 14.942 36.643 17.089 36.643 C 24.664 36.642 30.827 30.48 30.827 22.905 C 30.827 15.33 24.664 9.167 17.089 9.167 Z  M 14.293 18.29 L 20.565 18.29 C 20.879 18.29 21.135 18.544 21.135 18.86 C 21.135 19.175 20.879 19.43 20.565 19.43 L 14.293 19.43 C 13.978 19.43 13.723 19.175 13.723 18.86 C 13.723 18.544 13.978 18.29 14.293 18.29 Z  M 23.415 27.412 L 11.442 27.412 C 11.127 27.412 10.872 27.157 10.872 26.842 C 10.872 26.526 11.127 26.272 11.442 26.272 L 23.415 26.272 C 23.73 26.272 23.985 26.526 23.985 26.842 C 23.985 27.157 23.73 27.412 23.415 27.412 Z  M 23.415 23.421 L 11.442 23.421 C 11.127 23.421 10.872 23.166 10.872 22.851 C 10.872 22.535 11.127 22.281 11.442 22.281 L 23.415 22.281 C 23.73 22.281 23.985 22.535 23.985 22.851 C 23.985 23.166 23.73 23.421 23.415 23.421 Z " fill="rgb(245,231,255)"/></g></g></svg>