<?xml version="1.0" encoding="UTF-8" standalone="no"?><!-- Generator: Gravit.io --><svg xmlns="http://www.w3.org/2000/svg" xmlns:xlink="http://www.w3.org/1999/xlink" style="isolation:isolate" viewBox="0 0 40 40" width="40pt" height="40pt"><defs><clipPath id="_clipPath_w8zEzmR654LM3z0UeHCamHAGRtrNQwcT"><rect width="40" height="40"/></clipPath></defs><g clip-path="url(#_clipPath_w8zEzmR654LM3z0UeHCamHAGRtrNQwcT)"><clipPath id="_clipPath_i8gwy9HgyvFN7O7MnScUGzL8yANkpEF8"><rect x="0" y="0" width="40" height="40" transform="matrix(1,0,0,1,0,0)" fill="rgb(255,255,255)"/></clipPath><g clip-path="url(#_clipPath_i8gwy9HgyvFN7O7MnScUGzL8yANkpEF8)"><g><rect x="0" y="0" width="40" height="40" transform="matrix(1,0,0,1,0,0)" fill="none"/><path d=" M 24.532 13 L 20 17.532 L 15.467 13 L 13 15.467 L 17.532 20 L 13 24.532 L 15.467 27 L 20 22.467 L 24.532 27 L 27 24.532 L 22.467 20 L 27 15.467 L 24.532 13 Z  M 20 2.5 C 10.322 2.5 2.5 10.322 2.5 20 C 2.5 29.677 10.322 37.5 20 37.5 C 29.677 37.5 37.5 29.677 37.5 20 C 37.5 10.322 29.677 2.5 20 2.5 Z  M 20 34 C 12.282 34 6 27.717 6 20 C 6 12.282 12.282 6 20 6 C 23.858 6 27.358 7.569 29.894 10.105 C 32.429 12.64 34 16.14 34 20 C 34 27.717 27.717 34 20 34 Z " fill="rgb(108,0,0)"/></g></g></g></svg>