<?xml version="1.0" encoding="UTF-8" standalone="no"?><!-- Generator: Gravit.io --><svg xmlns="http://www.w3.org/2000/svg" xmlns:xlink="http://www.w3.org/1999/xlink" style="isolation:isolate" viewBox="0 0 40 40" width="40pt" height="40pt"><defs><clipPath id="_clipPath_OuIWaAbfu9RUjUbSjG5RbynoHMUa1jw1"><rect width="40" height="40"/></clipPath></defs><g clip-path="url(#_clipPath_OuIWaAbfu9RUjUbSjG5RbynoHMUa1jw1)"><clipPath id="_clipPath_yBIPchZ0p95MZ87oRElrMHJkrY8mnKBW"><rect x="0" y="0" width="40" height="40" transform="matrix(1,0,0,1,0,0)" fill="rgb(255,255,255)"/></clipPath><g clip-path="url(#_clipPath_yBIPchZ0p95MZ87oRElrMHJkrY8mnKBW)"><g><path d=" M 20 2.135 C 25.047 2.135 29.141 6.227 29.141 11.276 C 29.141 16.323 25.047 20.417 20 20.417 C 14.953 20.417 10.859 16.323 10.859 11.276 C 10.859 6.227 14.953 2.135 20 2.135 Z " fill="rgb(245,231,255)"/><path d=" M 20 37.865 C 13.903 37.865 8.439 35.102 4.783 30.782 C 6.736 27.105 10.559 24.57 15.014 24.57 C 15.263 24.57 15.513 24.612 15.752 24.685 C 17.102 25.121 18.515 25.402 20 25.402 C 21.485 25.402 22.909 25.121 24.248 24.685 C 24.487 24.612 24.737 24.57 24.986 24.57 C 29.441 24.57 33.264 27.105 35.217 30.782 C 31.561 35.102 26.097 37.865 20 37.865 Z " fill="rgb(245,231,255)"/></g></g></g></svg>